<svg width="200" height="200" viewBox="0 0 200 200" fill="none" xmlns="http://www.w3.org/2000/svg">
<g clip-path="url(#clip0_1231_4899)">
<g clip-path="url(#clip1_1231_4899)">
<path d="M166.667 2.5H33.3333C16.3046 2.5 2.5 16.3046 2.5 33.3333V166.667C2.5 183.695 16.3046 197.5 33.3333 197.5H166.667C183.695 197.5 197.5 183.695 197.5 166.667V33.3333C197.5 16.3046 183.695 2.5 166.667 2.5Z" fill="#1C1B1C"/>
<path d="M166.667 5C182.289 5 195 17.7111 195 33.3333V166.667C195 182.289 182.289 195 166.667 195H33.3333C17.7111 195 5 182.289 5 166.667V33.3333C5 17.7111 17.7111 5 33.3333 5H166.667ZM166.667 0H33.3333C14.925 0 0 14.925 0 33.3333V166.667C0 185.075 14.925 200 33.3333 200H166.667C185.075 200 200 185.075 200 166.667V33.3333C200 14.925 185.075 0 166.667 0Z" fill="#FF986C"/>
<path d="M81.7222 99.1389L67.9722 112.889L81.7222 126.639L95.4722 140.389L136.111 99.75V150H58.3333V50H136.111V72.25L95.4722 112.889L81.7222 99.1389Z" fill="#A87DFF"/>
<path d="M136.111 72.2501V99.7501L95.4722 140.389L81.7222 126.639L67.9722 112.889L81.7222 99.139L95.4722 112.889L136.111 72.2501Z" fill="url(#paint0_linear_1231_4899)"/>
<path d="M158.333 77.5278L136.111 99.75V72.2501L144.583 63.7778L158.333 77.5278Z" fill="#FF986C"/>
</g>
</g>
<defs>
<linearGradient id="paint0_linear_1231_4899" x1="67.9722" y1="106.32" x2="136.111" y2="106.32" gradientUnits="userSpaceOnUse">
<stop offset="0.25" stop-color="#FF986C"/>
<stop offset="0.988" stop-color="#A87DFF"/>
</linearGradient>
<clipPath id="clip0_1231_4899">
<rect width="200" height="200" fill="white"/>
</clipPath>
<clipPath id="clip1_1231_4899">
<rect width="200" height="200" fill="white"/>
</clipPath>
</defs>
</svg>
